Coordinates
version=1
nRows=54
nColumns=12
inDegrees=yes

Units are S.I. units (second, meters, Newtons, ...)
Angles are in degrees

endheader
time	SC_y	SC_z	SC_x	AC_y	AC_z	AC_x	GH_y	GH_z	GH_yy	EL_x	PS_y
       0.0              -54.85          10.09          13.22           47.0          7.277         -7.885          128.4           71.9         -84.14          28.93          150.2
   0.04765              -54.85          10.09          13.22           47.0          7.276         -7.886          128.4           71.9         -84.15          28.94          150.1
   0.09531              -54.85           10.1          13.22           47.0          7.276         -7.887          128.4          71.89         -84.16          28.94          150.1
     0.143              -54.85           10.1          13.23           47.0          7.276         -7.889          128.4          71.89         -84.17          28.95          150.1
    0.1906              -54.84           10.1          13.23           47.0          7.276          -7.89          128.4          71.88         -84.18          28.96          150.1
    0.2383              -54.84           10.1          13.24           47.0          7.276         -7.891          128.4          71.88         -84.19          28.96          150.1
    0.2859              -54.84           10.1          13.25           47.0          7.276         -7.893          128.4          71.87          -84.2          28.97          150.1
    0.3336              -54.83           10.1          13.25          46.99          7.276         -7.894          128.3          71.87         -84.22          28.98          150.1
    0.3812              -54.83           10.1          13.26          46.99          7.275         -7.896          128.3          71.86         -84.23          28.99          150.1
    0.4289              -54.83           10.1          13.26          46.99          7.275         -7.898          128.3          71.86         -84.24           29.0          150.0
    0.4765              -54.82           10.1          13.27          46.99          7.275           -7.9          128.3          71.85         -84.26          29.01          150.0
    0.5242              -54.82          10.11          13.28          46.99          7.275         -7.902          128.3          71.84         -84.28          29.02          150.0
    0.5718              -54.81          10.11          13.29          46.98          7.274         -7.904          128.2          71.83          -84.3          29.03          150.0
    0.6195              -54.81          10.11           13.3          46.98          7.274         -7.907          128.2          71.82         -84.32          29.05          150.0
    0.6672               -54.8          10.11          13.31          46.98          7.274          -7.91          128.2          71.81         -84.34          29.06          150.0
    0.7148               -54.8          10.11          13.32          46.98          7.274         -7.913          128.2           71.8         -84.36          29.07          149.9
    0.7625              -54.79          10.12          13.33          46.97          7.273         -7.916          128.1          71.79         -84.39          29.09          149.9
    0.8101              -54.78          10.12          13.35          46.97          7.273         -7.919          128.1          71.78         -84.42          29.11          149.9
    0.8578              -54.78          10.12          13.36          46.97          7.273         -7.923          128.1          71.77         -84.45          29.13          149.9
    0.9054              -54.77          10.12          13.38          46.96          7.272         -7.927          128.0          71.75         -84.48          29.15          149.8
    0.9531              -54.76          10.13          13.39          46.96          7.272         -7.932          128.0          71.74         -84.52          29.17          149.8
     1.001              -54.75          10.13          13.41          46.95          7.271         -7.937          127.9          71.72         -84.56           29.2          149.7
     1.048              -54.74          10.14          13.43          46.95          7.271         -7.942          127.9           71.7          -84.6          29.23          149.7
     1.096              -54.72          10.14          13.46          46.94           7.27         -7.948          127.8          71.68         -84.65          29.26          149.6
     1.144              -54.71          10.15          13.48          46.93          7.269         -7.955          127.7          71.65         -84.71          29.29          149.6
     1.191              -54.69          10.15          13.51          46.92          7.268         -7.963          127.7          71.62         -84.77          29.33          149.5
     1.239              -54.68          10.16          13.54          46.92          7.267         -7.971          127.6          71.59         -84.84          29.38          149.5
     1.287              -54.66          10.16          13.58          46.91          7.266         -7.981          127.5          71.56         -84.92          29.43          149.4
     1.334              -54.64          10.17          13.62           46.9          7.265         -7.991          127.4          71.52         -85.01          29.48          149.3
     1.382              -54.61          10.18          13.67          46.88          7.264         -8.004          127.3          71.48         -85.11          29.55          149.2
      1.43              -54.58          10.19          13.72          46.87          7.263         -8.018          127.1          71.43         -85.22          29.62          149.1
     1.477              -54.55           10.2          13.78          46.85          7.261         -8.034          127.0          71.37         -85.35           29.7          149.0
     1.525              -54.51          10.22          13.86          46.83          7.259         -8.052          126.8           71.3          -85.5           29.8          148.8
     1.573              -54.47          10.23          13.94          46.81          7.257         -8.074          126.6          71.23         -85.68          29.91          148.6
      1.62              -54.41          10.25          14.03          46.78          7.254         -8.099          126.3          71.14         -85.88          30.04          148.4
     1.668              -54.35          10.27          14.15          46.75          7.251         -8.129          126.0          71.03         -86.12          30.19          148.2
     1.716              -54.28           10.3          14.28          46.72          7.247         -8.164          125.7           70.9         -86.41          30.38          147.9
     1.763              -54.19          10.33          14.45          46.67          7.243         -8.206          125.2          70.75         -86.76          30.59          147.6
     1.811              -54.09          10.37          14.64          46.62          7.237         -8.258          124.7          70.57         -87.17          30.86          147.2
     1.859              -53.96          10.42          14.88          46.56          7.231          -8.32          124.1          70.35         -87.68          31.18          146.7
     1.906               -53.8          10.47          15.18          46.48          7.223         -8.397          123.3          70.07         -88.31          31.58          146.1
     1.954              -53.61          10.55          15.55          46.38          7.213         -8.494          122.4          69.72          -89.1          32.08          145.3
     2.001              -53.36          10.64          16.01          46.26            7.2         -8.615          121.2          69.29         -90.08          32.71          144.3
     2.049              -53.04          10.75           16.6           46.1          7.184         -8.769          119.6          68.74         -91.34          33.51          143.1
     2.097              -52.64           10.9          17.36           45.9          7.163         -8.967          117.7          68.03         -92.95          34.53          141.5
     2.144              -52.12          11.08          18.32          45.64          7.136          -9.22          115.2          67.13         -95.01          35.84          139.5
     2.192              -51.45          11.33          19.56          45.31          7.102         -9.543          111.9          65.97         -97.64          37.51          136.9
      2.24              -50.62          11.63          21.12          44.89          7.059          -9.95          107.9          64.52         -101.0          39.62          133.6
     2.287               -49.6           12.0          23.02          44.38          7.007         -10.45          102.9          62.74         -105.0          42.18          129.7
     2.335              -48.42          12.42          25.22          43.79          6.947         -11.02          97.23          60.69         -109.7          45.15          125.1
     2.383              -47.15          12.88           27.6          43.15          6.881         -11.64          91.04          58.46         -114.7          48.37          120.1
      2.43              -45.87          13.35          29.98          42.52          6.816         -12.26          84.84          56.24         -119.8          51.59          115.1
     2.478               -44.7          13.77          32.18          41.93          6.756         -12.84          79.12          54.18         -124.5          54.56          110.5
     2.526              -43.68          14.14          34.08          41.42          6.704         -13.34          74.19          52.41         -128.5          57.13          106.5
